<svg width="686" height="125" viewBox="0 0 686 125" fill="none" xmlns="http://www.w3.org/2000/svg">
<path d="M161.681 67.2995L169.558 46.0751H169.877L177.753 67.2995H161.681ZM160.829 38.6092V38.9292C160.829 38.9292 163.278 40.7423 161.575 45.6485L145.609 86.1775H154.656L159.126 74.0188H180.095L184.565 86.1775H193.719L175.092 38.6092H160.829Z" fill="#005D4D"/>
<path d="M248.748 48.2082C248.216 46.3951 247.152 44.6886 245.768 43.302C244.384 41.9155 242.468 40.7423 239.914 39.8891C237.466 39.0358 234.272 38.6092 230.547 38.6092H213.198H210.217V38.9292C210.217 38.9292 213.198 40.9556 213.198 46.3951V86.0708H221.606V45.5418H230.441C232.569 45.5418 234.272 45.7551 235.656 46.0751C237.04 46.5017 238.104 47.035 238.956 47.6749C239.807 48.4215 240.339 49.2747 240.659 50.3413C240.978 51.4079 241.191 52.5811 241.191 54.0742C241.191 55.4608 241.085 56.634 240.765 57.7005C240.446 58.7671 239.914 59.727 239.062 60.4736C238.317 61.2201 237.146 61.8601 235.763 62.2867C234.379 62.7133 232.569 62.9266 230.441 62.9266H227.247L224.267 70.0725H230.654C234.379 70.0725 237.466 69.6459 239.914 68.7927C242.362 67.9394 244.278 66.7662 245.768 65.273C247.152 63.7799 248.216 62.0734 248.748 60.0469C249.28 58.0205 249.6 55.994 249.6 53.8609C249.6 52.0478 249.28 50.0213 248.748 48.2082Z" fill="#005D4D"/>
<path d="M258.966 38.6092H255.986V38.9292C255.986 38.9292 258.966 40.9556 258.966 46.3951V86.0708H267.481V38.6092H258.966Z" fill="#005D4D"/>
<path d="M309.631 45.9684L312.612 38.6092H280.467H277.487V38.9292C277.487 38.9292 280.467 40.9556 280.467 46.3951V86.0708H288.982V67.6195H305.693L308.673 60.2602H288.982V45.9684H309.631Z" fill="#005D4D"/>
<path d="M379.136 70.4991C378.497 73.3788 377.327 76.1519 375.411 78.7116C373.601 81.2713 371.047 83.2978 367.96 84.8976C364.873 86.4974 361.148 87.3507 356.997 87.3507C352.313 87.3507 348.056 86.3908 344.33 84.3643C340.605 82.3379 337.731 79.4582 335.602 75.7253C333.474 71.9923 332.409 67.6195 332.409 62.5C332.409 57.4872 333.474 53.1143 335.602 49.3814C337.731 45.6485 340.605 42.7688 344.33 40.7423C348.056 38.7159 352.313 37.756 356.997 37.756C361.041 37.756 364.66 38.5026 367.747 40.1024C370.834 41.5956 373.388 43.622 375.198 45.9684C377.007 48.3148 378.285 50.7679 378.817 53.1143L370.621 54.5009C369.876 51.7278 368.386 49.3814 366.044 47.4616C363.702 45.5418 360.722 44.6886 356.997 44.6886C353.91 44.6886 351.143 45.4352 348.801 46.8217C346.353 48.2082 344.437 50.2346 343.053 53.0077C341.67 55.6741 340.924 58.8737 340.924 62.6067C340.924 66.3396 341.67 69.5393 343.053 72.3123C344.437 74.9787 346.353 77.1118 348.801 78.4983C351.249 79.8848 354.016 80.6314 356.997 80.6314C360.829 80.6314 363.915 79.5648 366.151 77.5384C368.492 75.5119 369.982 72.8456 370.727 69.6459L379.136 70.4991Z" fill="#005D4D"/>
<path d="M652.578 60.4736L665.351 38.6092H674.611L656.623 67.6195V86.1775H648.321V67.7261L630.332 38.6092H639.805L652.578 60.4736Z" fill="#005D4D"/>
<path d="M416.816 78.1783C419.264 76.7918 421.18 74.6587 422.563 71.9923C423.947 69.3259 424.692 66.1263 424.692 62.3933C424.692 58.6604 423.947 55.4608 422.563 52.7944C421.18 50.128 419.264 48.1015 416.816 46.6084C414.367 45.2218 411.6 44.4753 408.513 44.4753C405.32 44.4753 402.553 45.2218 400.105 46.6084C397.656 47.9949 395.741 50.128 394.357 52.7944C392.973 55.4608 392.228 58.6604 392.228 62.3933C392.228 66.1263 392.973 69.3259 394.357 71.9923C395.741 74.6587 397.656 76.6852 400.105 78.1783C402.553 79.5649 405.32 80.3114 408.513 80.3114C411.6 80.3114 414.367 79.5649 416.816 78.1783ZM421.286 40.529C425.011 42.5555 427.992 45.4352 430.12 49.1681C432.249 52.901 433.314 57.3806 433.314 62.3933C433.314 67.4061 432.249 71.8857 430.12 75.6186C427.992 79.3515 425.011 82.2312 421.286 84.2577C417.561 86.2841 413.303 87.244 408.513 87.244C403.724 87.244 399.466 86.2841 395.741 84.2577C392.015 82.2312 389.035 79.3515 386.906 75.6186C384.777 71.8857 383.713 67.4061 383.713 62.3933C383.713 57.3806 384.777 52.901 386.906 49.1681C389.035 45.4352 392.015 42.5555 395.741 40.529C399.466 38.5026 403.724 37.5427 408.513 37.5427C413.303 37.5427 417.454 38.5026 421.286 40.529Z" fill="#005D4D"/>
<path d="M548.906 67.2995L556.783 46.0751H557.102L564.979 67.2995H548.906ZM548.161 38.6092V38.9292C548.161 38.9292 550.61 40.7423 548.906 45.6485L532.941 86.1775H541.988L546.458 74.0188H567.427L571.897 86.1775H581.051L562.424 38.6092H548.161Z" fill="#005D4D"/>
<path d="M440.339 86.1775H448.109V49.9147H448.322L460.881 86.1775H467.374L479.934 49.9147H480.253V86.1775H488.236V38.6092H476.102L464.5 73.8055H464.287L452.686 38.6092H440.445H437.465V38.9292C437.465 38.9292 440.445 40.9556 440.445 46.3951V86.1775H440.339Z" fill="#005D4D"/>
<path d="M584.67 86.1775H592.44V50.2346H592.653L616.815 86.1775H625.968V38.6092H618.198V74.0188H617.879L594.037 38.6092H584.564H581.583V38.9292C581.583 38.9292 584.564 40.9556 584.564 46.3951V86.1775H584.67Z" fill="#005D4D"/>
<path d="M498.774 86.1775H507.182V45.6485H516.017C518.146 45.6485 519.849 45.8618 521.232 46.1817C522.616 46.6084 523.68 47.1416 524.532 47.7816C525.383 48.5282 525.916 49.3814 526.235 50.448C526.554 51.5145 526.767 52.7944 526.767 54.1809C526.767 55.5674 526.661 56.7406 526.341 57.8072C526.022 58.8737 525.49 59.8336 524.638 60.5802C523.787 61.3268 522.722 61.9667 521.339 62.3933C519.955 62.82 518.146 63.0333 516.017 63.0333H512.717L509.843 70.1792H516.23C519.955 70.1792 523.042 69.7526 525.49 68.8993C527.938 68.0461 529.854 66.8729 531.344 65.3797C532.728 63.8865 533.792 62.18 534.324 60.1536C534.856 58.1271 535.176 56.1007 535.176 53.9676C535.176 51.9411 534.856 50.0213 534.324 48.1015C533.792 46.2884 532.728 44.5819 531.344 43.1954C529.96 41.8089 528.151 40.6357 525.596 39.7824C523.148 38.9292 519.849 38.5026 516.123 38.5026H498.774H495.793V38.8225C495.793 38.8225 498.774 40.849 498.774 46.2884V86.1775Z" fill="#005D4D"/>
<path d="M109.952 54.2875L110.271 55.7807L116.657 54.6075L116.444 53.1143L109.952 54.2875Z" fill="#005D4D"/>
<path d="M109.845 71.2457L116.338 72.4189L116.551 70.9258L110.164 69.7526L109.845 71.2457Z" fill="#005D4D"/>
<path d="M114.954 67.5128C115.699 67.6195 116.125 67.2995 116.232 66.7662C116.338 66.2329 115.912 65.8063 115.167 65.8063C114.422 65.6997 113.996 66.0196 113.996 66.5529L113.89 67.5128H114.954ZM110.377 68.4727L110.484 66.9795L112.825 67.1928L112.932 65.913C113.038 64.8464 113.783 63.9932 115.167 64.0998C116.444 64.2065 117.296 65.1664 117.083 66.7662C116.87 68.4727 115.699 69.006 114.422 68.8993L110.377 68.4727Z" fill="#005D4D"/>
<path d="M114.848 57.9138L114.954 59.087L117.189 58.9804L117.296 60.4736L115.061 60.5802V61.6468L117.296 61.4334V62.9266L114.209 63.1399L113.89 58.0205L110.484 58.2338L110.377 56.7406L116.977 56.314L117.083 57.8072L114.848 57.9138Z" fill="#005D4D"/>
<path d="M18.3075 56.5273L12.0276 55.5674L12.2405 54.0742L16.2852 54.7142L16.4981 53.541L17.5625 53.7543V53.9676C17.5625 54.2875 17.5625 54.6075 17.7753 54.8208C17.9882 55.0341 18.2011 55.2474 18.5204 55.3541L18.3075 56.5273Z" fill="#005D4D"/>
<path d="M15.3272 59.087C15.1144 59.1937 15.0079 59.407 15.0079 59.727C15.0079 59.9403 15.1144 60.1536 15.2208 60.3669C15.4337 60.5802 15.6466 60.6869 15.9659 60.6869C16.2852 60.6869 16.6045 60.5802 16.7109 60.4736C16.9238 60.2602 17.0303 60.1536 17.0303 59.8336C17.0303 59.6203 16.9238 59.407 16.8174 59.1937C16.6045 58.9804 16.3916 58.8737 16.0723 58.8737C15.753 58.7671 15.4337 58.8737 15.3272 59.087ZM14.1564 58.3404C14.3693 58.0205 14.5822 57.8072 14.9015 57.7005C15.2208 57.4872 15.5401 57.4872 15.9659 57.4872C16.4981 57.4872 16.9238 57.5939 17.2431 57.9138C17.5625 58.1271 17.7753 58.4471 17.8818 58.7671C17.9882 59.087 18.0947 59.5137 18.0947 59.8336C18.0947 60.6869 17.7753 61.3268 17.1367 61.6468C16.4981 61.9667 15.753 62.18 14.6886 62.0734C13.5178 61.9667 12.6663 61.7534 12.2405 61.3268C11.8147 60.9002 11.6019 60.2602 11.6019 59.5137C11.6019 58.9804 11.8147 58.5538 12.1341 58.1271C12.4534 57.8072 12.8791 57.5939 13.4113 57.4872L13.5178 58.8737C12.9856 58.9804 12.7727 59.1937 12.7727 59.5137C12.7727 59.8336 12.8791 60.1536 13.1985 60.2602C13.5178 60.3669 13.8371 60.4736 14.3693 60.5802C14.2628 60.3669 14.05 60.2602 14.05 60.0469C13.9435 59.8336 13.9435 59.6203 13.9435 59.407C13.9435 58.8737 14.05 58.5538 14.1564 58.3404Z" fill="#005D4D"/>
<path d="M17.9882 62.7133L18.2011 67.2995H16.8174L11.7083 65.0597L11.6019 63.2466L16.7109 65.6997L16.6045 62.7133H17.9882Z" fill="#005D4D"/>
<path d="M18.7333 70.4991L12.4534 71.459L12.2405 69.9659L16.2852 69.3259L16.0723 68.2594L17.1367 68.0461V68.2594C17.1367 68.5794 17.3496 68.8993 17.5625 69.006C17.7753 69.2193 18.0947 69.3259 18.414 69.3259L18.7333 70.4991Z" fill="#005D4D"/>
<path d="M107.823 33.4898C108.142 33.2764 108.249 32.7432 108.036 32.4232C107.823 32.1032 107.291 31.9966 106.971 32.2099C106.652 32.4232 106.546 32.9565 106.758 33.2765C106.971 33.5964 107.504 33.7031 107.823 33.4898Z" fill="#005D4D"/>
<path d="M108.355 42.6621L107.716 42.9821C107.184 41.7022 106.546 40.529 105.907 39.2491L107.397 38.3959L108.781 41.1689C108.994 41.8089 108.781 42.4488 108.355 42.6621ZM109.632 40.849L108.355 38.1826L107.61 38.2893L108.568 37.6493L107.716 36.2628L105.055 37.8626C104.736 37.3294 104.417 36.7961 103.991 36.2628L106.546 34.4497L105.694 33.0631L103.139 34.8763C102.82 34.343 102.394 33.9164 102.075 33.3831L102.82 32.7432C103.991 31.7833 104.097 30.6101 103.033 29.3302L102.182 28.477L101.33 29.2235L101.756 29.7568C102.394 30.5034 102.288 30.93 101.756 31.4633L100.798 32.2099C100.266 31.57 99.627 30.8234 99.0948 30.1834L98.4562 30.93C99.8399 32.4232 101.011 33.9164 102.182 35.6229C102.501 36.0495 102.82 36.2628 103.352 36.3695L103.139 37.0094C104.736 39.5691 106.226 42.2355 107.397 45.0085L108.887 44.2619C110.377 43.4087 110.271 42.0222 109.632 40.849Z" fill="#005D4D"/>
<path d="M96.1145 21.4377C95.7952 21.2244 95.7952 20.7978 96.0081 20.4778C96.221 20.1579 96.6467 20.1579 96.966 20.3712C97.2854 20.5845 97.2853 21.0111 97.0725 21.3311C96.8596 21.5444 96.4338 21.651 96.1145 21.4377ZM94.7308 20.3712C94.4115 20.1579 94.4115 19.7312 94.6244 19.4113C94.8373 19.0913 95.263 19.0913 95.5823 19.3046C95.9016 19.5179 95.9016 19.9445 95.6888 20.2645C95.4759 20.4778 95.0501 20.5845 94.7308 20.3712ZM94.0922 22.3976C93.6664 22.0776 92.9214 22.0776 92.4956 22.6109C92.0698 23.1442 92.1763 23.7841 92.7085 24.2108L93.2407 24.6374L93.3471 24.5307L94.6244 22.8242L94.0922 22.3976ZM96.5403 23.0375L94.5179 25.8106C93.2407 27.5171 91.3248 27.1971 89.7282 26.0239C88.238 24.8507 87.2801 23.1442 88.5573 21.4377L89.0895 20.7978L90.3668 21.7577L89.7282 22.3976C88.9831 23.3575 89.6217 24.4241 90.4732 25.064C91.1119 25.4906 91.857 25.7039 92.4956 25.384L91.7505 24.8507C90.6861 24.1041 90.3668 22.7176 91.2183 21.7577C92.1763 20.4778 93.6664 20.6911 94.7308 21.5444L96.5403 23.0375Z" fill="#005D4D"/>
<path d="M97.7111 28.5836L99.3077 26.9838L98.7755 26.4505C98.3498 26.0239 97.7111 26.0239 97.1789 26.5572C96.6467 27.0904 96.7532 27.7304 97.1789 28.157L97.7111 28.5836ZM101.224 27.3038L98.5626 30.0768C97.0725 31.57 95.9017 31.25 94.6244 30.0768L93.9857 29.4369L94.7308 28.6903L95.1566 29.1169C95.7952 29.7568 96.3274 29.8635 96.966 29.3302L96.221 28.5836C95.263 27.6237 95.1566 26.3439 96.0081 25.384C97.0725 24.2107 98.5626 24.6374 99.5206 25.5973L101.224 27.3038Z" fill="#005D4D"/>
<path d="M42.2564 17.3848C42.5757 17.1715 42.6821 16.8515 42.5757 16.4249C42.3628 16.1049 42.0435 15.9983 41.6177 16.1049C41.2984 16.3183 41.192 16.6382 41.2984 17.0648C41.5113 17.3848 41.937 17.5981 42.2564 17.3848Z" fill="#005D4D"/>
<path d="M40.7662 18.1314C41.0855 17.9181 41.1919 17.5981 41.0855 17.1715C40.8726 16.8515 40.5533 16.7449 40.1275 16.8515C39.8082 17.0648 39.7018 17.3848 39.8082 17.8114C40.0211 18.2381 40.3404 18.3447 40.7662 18.1314Z" fill="#005D4D"/>
<path d="M63.2249 10.1323C63.2249 10.4522 63.5442 10.7722 63.8635 10.7722C64.2892 10.7722 64.5021 10.4522 64.5021 10.1323C64.5021 9.70563 64.1828 9.49232 63.757 9.49232C63.5442 9.49232 63.2249 9.81229 63.2249 10.1323Z" fill="#005D4D"/>
<path d="M62.1604 10.8788C62.5862 10.8788 62.7991 10.5589 62.7991 10.2389C62.7991 9.81229 62.4798 9.59898 62.054 9.59898C61.6283 9.59898 61.4154 9.91894 61.4154 10.3456C61.5218 10.5589 61.8411 10.8788 62.1604 10.8788Z" fill="#005D4D"/>
<path d="M63.012 9.38567C63.4377 9.38567 63.6506 9.0657 63.6506 8.74573C63.6506 8.31911 63.3313 8.1058 62.9055 8.1058C62.4798 8.1058 62.2669 8.42577 62.2669 8.85239C62.3733 9.0657 62.5862 9.38567 63.012 9.38567Z" fill="#005D4D"/>
<path d="M67.8017 10.9855C68.2275 10.9855 68.5468 10.7722 68.5468 10.3456C68.5468 9.91894 68.3339 9.59898 67.9082 9.59898C67.5888 9.59898 67.1631 9.81229 67.1631 10.2389C67.1631 10.5589 67.4824 10.8788 67.8017 10.9855Z" fill="#005D4D"/>
<path d="M66.0987 10.8788C66.5244 10.8788 66.8438 10.6655 66.8438 10.2389C66.8438 9.81229 66.6309 9.49232 66.2051 9.49232C65.8858 9.49232 65.4601 9.70563 65.4601 10.1323C65.4601 10.4522 65.7794 10.7722 66.0987 10.8788Z" fill="#005D4D"/>
<path d="M46.9396 19.3046L45.3431 15.3584L44.0658 15.8916L45.2366 18.878C43.64 19.6246 41.8306 20.4778 40.9791 21.0111C40.3404 21.3311 40.0211 21.3311 39.5953 20.5845L39.0632 19.7312L37.6794 20.4778L37.9988 21.1177C38.8503 22.6109 39.9147 22.7176 41.1919 22.0776C43.2143 21.0111 45.0237 20.0512 46.9396 19.3046Z" fill="#005D4D"/>
<path d="M57.3707 15.3584C57.4771 15.0384 57.69 14.7184 57.69 14.2918L57.7964 13.0119L58.2222 12.9053C58.7544 12.7986 59.393 13.2253 59.4995 13.9718L59.6059 15.0384C58.8608 15.1451 58.1158 15.2517 57.3707 15.3584ZM73.1237 16.7449C73.6559 16.8515 74.0816 16.7449 74.5074 16.4249L74.8267 17.0648C75.6782 17.2782 76.6362 17.4915 77.4877 17.8114L78.5521 13.6519L76.9555 13.2253L76.2104 16.3183C75.7846 16.2116 75.3589 16.105 74.8267 15.9983C74.9331 15.8916 74.9331 15.6783 75.0396 15.465L75.4653 13.2253L73.8687 12.9053L73.3365 15.5717C72.8043 15.465 72.2722 15.3584 71.74 15.2517L72.1657 12.5853L70.5691 12.372L70.1434 15.0384C69.5047 14.9317 68.7597 14.9317 68.2275 14.8251L68.4403 11.6254L66.8438 11.7321L66.5244 14.9317C65.8858 14.9317 65.2472 14.9317 64.5021 14.9317V11.7321H62.9055V14.9317C62.2669 14.9317 61.7347 14.9317 61.096 15.0384L60.9896 13.9718C60.7767 12.372 59.393 11.8387 58.0093 11.9454L56.0934 12.2654L55.987 14.3985C55.8805 15.2517 55.6677 15.785 54.9226 15.8916L54.2839 15.9983L52.9002 10.3456L51.3036 10.6655L52.5809 15.8916C52.7938 16.8515 53.5389 17.2782 54.4968 17.0648C54.8161 16.9582 55.029 16.9582 55.3483 16.8515C56.3063 16.6382 56.9449 16.3183 57.2642 15.5717L58.0093 16.3183C59.7123 16.105 61.4154 15.9983 63.1184 15.8916C63.6506 15.8916 63.9699 15.6783 64.2892 15.3584L64.715 15.8916C65.3536 15.8916 65.9922 15.8916 66.6309 15.9983C67.1631 15.9983 67.5888 15.8916 67.9081 15.5717L68.2275 16.105C69.9305 16.2116 71.5271 16.4249 73.1237 16.7449Z" fill="#005D4D"/>
<path d="M86.2157 13.7585L84.7255 13.1186L82.4903 18.558C82.0646 18.3447 81.5324 18.1314 81.1066 18.0247L82.5968 13.5452L81.1066 12.7986L79.6165 17.2782C79.1907 17.1715 78.8714 17.0648 78.4456 16.9582L78.1263 18.0247C80.0422 18.558 81.8517 19.3046 83.5547 20.1578L86.2157 13.7585Z" fill="#005D4D"/>
<path d="M46.9397 11.9454L49.3878 18.4514L47.8976 18.9846L45.4495 12.4787L46.9397 11.9454Z" fill="#005D4D"/>
<path d="M51.9423 17.3848C52.368 18.7713 51.9423 19.8379 50.4521 20.4778L49.8135 19.6246C50.4521 19.3046 50.7715 18.878 50.5586 18.1314L49.2813 13.8652L50.8779 13.4386L51.9423 17.3848Z" fill="#005D4D"/>
<path d="M89.0895 15.0384L86.0028 21.3311L84.6191 20.5845L87.5994 14.3985L89.0895 15.0384Z" fill="#005D4D"/>
<path d="M16.7109 40.529C16.3916 40.4224 15.9659 40.529 15.753 40.849C15.6465 41.1689 15.753 41.5956 16.0723 41.7022C16.3916 41.8089 16.8174 41.7022 16.9238 41.3823C17.2431 41.0623 17.1367 40.6357 16.7109 40.529Z" fill="#005D4D"/>
<path d="M17.456 38.9292C17.1367 38.7159 16.711 38.9292 16.4981 39.2491C16.3916 39.5691 16.4981 39.9957 16.8174 40.1024C17.1367 40.209 17.5625 40.1024 17.6689 39.7824C17.9882 39.4625 17.7753 39.0358 17.456 38.9292Z" fill="#005D4D"/>
<path d="M23.8424 37.6493L23.7359 37.756C23.6295 37.436 23.3102 37.0094 23.0973 36.7961C22.8844 36.5828 22.2458 35.8362 22.2458 35.8362L22.4586 35.5162C22.778 34.9829 23.4166 34.7696 24.0552 35.1962L25.1196 35.8362C24.6939 36.4761 24.2681 37.0094 23.8424 37.6493ZM21.1814 42.7688C20.9685 43.302 20.4363 43.5154 19.9041 43.1954C19.3719 42.9821 19.159 42.4488 19.3719 41.9155L19.7977 41.0623L20.9685 41.7022C21.1814 41.8089 21.2878 41.8089 21.5007 41.9155L21.1814 42.7688ZM26.8226 35.0896C26.7162 34.9829 26.0776 34.663 24.9067 33.9164C23.6295 33.0631 22.2458 33.8097 21.5007 34.9829L20.5427 36.4761L22.0329 38.1826C22.5651 38.8225 22.8844 39.3558 22.5651 39.8891V39.9957L22.4586 40.209L22.1393 40.7423L18.8397 39.0358L18.0946 40.4224L18.6268 40.7423L18.0946 41.9155C17.5624 42.9821 17.8818 44.2619 18.9462 44.7952C20.0105 45.3285 21.2878 44.9019 21.82 43.8353L21.9264 43.7287C22.0329 43.5154 22.0329 43.4087 22.1393 43.1954L22.3522 42.7688L22.0329 42.1288C22.4586 42.0222 22.778 41.8089 23.0973 41.3823C23.2037 41.1689 23.523 40.529 23.523 40.529C23.9488 39.6758 24.0552 39.0358 23.8424 38.3959L24.9067 38.1826C25.5454 36.9027 26.184 35.9428 26.8226 35.0896Z" fill="#005D4D"/>
<path d="M27.9935 28.7969C28.2064 28.477 28.4192 28.0503 28.6321 27.837C29.1643 27.3038 29.6965 27.1971 30.1223 27.6237C30.4416 27.9437 30.548 28.3703 30.4416 29.0102C29.8029 29.0102 28.2064 28.7969 27.9935 28.7969ZM30.0158 31.25C30.4416 30.7167 30.6545 30.2901 30.8673 29.8635C31.2931 29.7568 31.7189 29.5435 32.1446 29.1169C33.209 28.0503 34.2734 27.0904 35.4442 26.1305L31.1867 20.6911L29.9094 21.7577L33.6348 26.4505C32.9961 26.9838 32.3575 27.6237 31.7188 28.2637C31.8253 27.5171 31.6124 26.7705 31.1867 26.3439C30.548 25.7039 29.3772 25.7039 28.2064 26.8771C27.5677 27.5171 27.142 28.2637 26.8227 28.9036C26.8227 28.9036 27.0355 29.6502 27.0355 29.7568C27.0355 29.8635 27.2484 29.9701 27.3548 29.9701C27.4613 29.9701 28.9514 30.2901 29.4836 30.2901C28.7386 31.0367 28.0999 31.8899 27.4613 32.6365L22.8844 28.9036L21.9265 30.1834L26.0776 33.4898C26.8227 34.1297 27.7806 34.023 28.3128 33.2765C28.7386 32.6365 29.3772 31.8899 30.0158 31.25Z" fill="#005D4D"/>
<path d="M33.5283 18.878L37.4666 24.5307L36.1893 25.4906L32.1446 19.8379L33.5283 18.878Z" fill="#005D4D"/>
<path d="M19.4784 82.8712C19.5848 83.0845 19.7977 83.2978 19.9041 83.2978C20.117 83.4044 20.3299 83.2978 20.5427 83.1911C20.7556 83.0845 20.9685 82.8712 21.0749 82.7645C21.1814 82.5512 21.1814 82.3379 21.0749 82.1246L20.6492 81.058L19.0526 81.8046L19.4784 82.8712ZM22.4587 83.5111C22.2458 84.0444 21.82 84.3643 21.1814 84.6843C20.5427 85.0043 20.0106 85.0043 19.4784 84.8976C18.9462 84.6843 18.6268 84.3643 18.3075 83.7244L17.7753 82.4445L15.8594 83.2978L15.2208 81.9113L21.0749 79.2449L22.2458 81.8046C22.5651 82.4445 22.6715 83.0845 22.4587 83.5111Z" fill="#005D4D"/>
<path d="M21.2878 91.2969C20.8621 91.2969 20.4363 91.1903 20.117 90.977C19.7977 90.7637 19.4784 90.4437 19.1591 90.0171C18.7333 89.3771 18.6269 88.7372 18.7333 88.0973C18.8397 87.4573 19.2655 86.9241 20.0106 86.4974L23.5231 84.3643L24.2681 85.6442L20.9685 87.6706C20.2235 88.0973 20.0106 88.6305 20.4363 89.2705C20.8621 89.9104 21.3943 90.0171 22.1394 89.4838L25.439 87.4573L26.184 88.7372L22.6716 90.8703C22.2458 91.1903 21.7136 91.2969 21.2878 91.2969Z" fill="#005D4D"/>
<path d="M26.5034 93.3234C26.6098 93.5367 26.8227 93.5367 26.9291 93.6434C27.0356 93.6434 27.2484 93.6433 27.4613 93.43C27.6742 93.3234 27.6742 93.1101 27.7806 93.0034C27.7806 92.7901 27.7806 92.6834 27.5677 92.4701L26.7162 91.4036L25.6518 92.2568L26.5034 93.3234ZM24.481 95.0299C24.5875 95.2432 24.8003 95.3498 24.9068 95.3498C25.1196 95.3498 25.2261 95.3498 25.439 95.1365C25.6518 95.0299 25.7583 94.8166 25.7583 94.7099C25.7583 94.4966 25.7583 94.3899 25.5454 94.1766L24.5875 93.0034L23.6295 93.8567L24.481 95.0299ZM29.1643 93.3234C29.1643 93.75 28.845 94.1766 28.5257 94.4966C28.3128 94.7099 28.0999 94.8166 27.7806 94.8166C27.5677 94.8166 27.2484 94.8166 27.0356 94.7099C27.142 95.0299 27.142 95.2432 27.0356 95.5631C26.9291 95.8831 26.7162 96.0964 26.5034 96.3097C26.0776 96.7364 25.5454 96.843 25.1197 96.843C24.6939 96.843 24.2681 96.523 23.8424 96.0964L21.82 93.5367L26.8227 89.4838L28.845 91.9369C29.0579 92.3635 29.1643 92.8968 29.1643 93.3234Z" fill="#005D4D"/>
<path d="M25.9712 98.6561L30.4416 94.07L31.506 95.1365L27.9935 98.7628L30.1223 100.789L29.0579 101.749L25.9712 98.6561Z" fill="#005D4D"/>
<path d="M34.0745 97.5072L29.899 102.489L31.0402 103.45L35.2157 98.4675L34.0745 97.5072Z" fill="#005D4D"/>
<path d="M36.9344 106.442C36.5086 106.655 36.0829 106.655 35.6571 106.655C35.2314 106.655 34.8056 106.442 34.3798 106.122C33.9541 105.802 33.5283 105.375 33.3155 104.949C33.1026 104.522 32.9961 103.989 33.1026 103.349C33.209 102.816 33.4219 102.176 33.8477 101.643C34.2734 101.109 34.6992 100.683 35.2314 100.363C35.7636 100.043 36.1893 99.936 36.7215 100.043C37.2537 100.043 37.7859 100.256 38.2117 100.576C38.6374 100.896 38.9567 101.216 39.0632 101.643C39.276 102.069 39.3825 102.496 39.3825 102.816C39.3825 103.242 39.276 103.669 39.1696 103.989L37.8923 103.349C37.9988 103.029 38.1052 102.709 37.9988 102.389C37.8923 102.069 37.7859 101.856 37.4666 101.643C37.2537 101.536 37.0408 101.429 36.7215 101.429C36.4022 101.429 36.1893 101.536 35.87 101.643C35.5507 101.856 35.3378 102.069 35.0185 102.496C34.8056 102.816 34.5927 103.242 34.5927 103.562C34.4863 103.882 34.5927 104.202 34.6992 104.416C34.8056 104.629 34.912 104.842 35.1249 105.055C35.4442 105.269 35.6571 105.269 35.9764 105.269C36.2958 105.162 36.6151 105.055 36.8279 104.736L37.9988 105.695C37.7859 106.015 37.3601 106.229 36.9344 106.442Z" fill="#005D4D"/>
<path d="M42.6665 103.424L39.7032 109.213L41.0291 109.894L43.9924 104.105L42.6665 103.424Z" fill="#005D4D"/>
<path d="M47.259 112.521L45.7688 111.881L45.2366 107.189L43.64 111.028L42.4692 110.602L44.8109 104.522L46.4075 105.162L46.8332 109.855L48.4298 106.015L49.6006 106.442L47.259 112.521Z" fill="#005D4D"/>
<path d="M55.7741 108.042L52.2616 113.908L50.5586 113.481L50.2393 106.655L51.7294 107.082L51.8358 111.988L54.2839 107.722L55.7741 108.042Z" fill="#005D4D"/>
<path d="M57.4771 110.815L60.2445 111.241L60.0317 112.415L57.3707 112.095L57.1578 113.375L60.0317 113.801L59.8188 115.081L55.5612 114.548L56.4127 108.148L60.6703 108.682L60.5639 109.962L57.69 109.642L57.4771 110.815Z" fill="#005D4D"/>
<path d="M64.2892 110.175C64.0763 110.068 63.8635 109.962 63.6506 109.962C63.4377 109.962 63.2248 109.962 63.0119 110.175C62.9055 110.282 62.7991 110.388 62.7991 110.602C62.7991 110.708 62.9055 110.922 63.0119 110.922C63.1184 111.028 63.3313 111.135 63.5441 111.135L64.3957 111.455C64.8214 111.561 65.1407 111.668 65.3536 111.775C65.5665 111.881 65.7794 112.095 65.9922 112.415C66.2051 112.735 66.2051 113.055 66.2051 113.481C66.2051 114.121 65.9922 114.654 65.46 114.974C65.0343 115.294 64.3957 115.401 63.757 115.401C63.012 115.401 62.4798 115.188 61.9476 114.761C61.5218 114.334 61.2025 113.801 61.2025 113.161L62.6926 113.055C62.6926 113.375 62.7991 113.695 63.0119 113.908C63.2248 114.121 63.4377 114.228 63.757 114.228C64.0763 114.228 64.2892 114.228 64.3957 114.015C64.6085 113.908 64.6085 113.695 64.6085 113.481C64.6085 113.268 64.5021 113.161 64.3957 113.055C64.2892 112.948 64.0763 112.841 63.757 112.735L62.9055 112.521C62.5862 112.415 62.2669 112.308 62.054 112.201C61.8411 112.095 61.6282 111.881 61.5218 111.668C61.4154 111.455 61.3089 111.028 61.3089 110.708C61.3089 110.068 61.5218 109.535 61.9476 109.215C62.3733 108.895 62.9055 108.682 63.6506 108.682C64.2892 108.682 64.8214 108.895 65.2472 109.215C65.6729 109.535 65.8858 110.068 65.9922 110.708L64.6085 110.815C64.6085 110.495 64.5021 110.282 64.2892 110.175Z" fill="#005D4D"/>
<path d="M71.5271 109.748L69.7176 109.962L70.1434 114.974L68.7597 115.081L68.2275 110.068L66.5245 110.282L66.3116 108.788L71.3142 108.362L71.5271 109.748Z" fill="#005D4D"/>
<path d="M77.9134 106.869L79.4036 113.161L78.0199 113.481L76.9555 109.108L76.849 113.801L75.8911 114.015L73.7623 109.855L74.7203 114.228L73.443 114.548L71.9529 108.255L74.0816 107.828L75.7847 111.348H75.8911L75.7847 107.402L77.9134 106.869Z" fill="#005D4D"/>
<path d="M81.1066 108.362L83.6612 107.402L84.0869 108.575L81.5324 109.535L82.0646 110.815L84.7255 109.748L85.1513 111.028L81.1066 112.628L78.8714 106.549L82.9161 105.055L83.3418 106.229L80.6809 107.295L81.1066 108.362Z" fill="#005D4D"/>
<path d="M91.3248 107.935L89.941 108.682L86.0028 106.015L87.9187 109.748L86.7479 110.388L83.7676 104.629L85.2577 103.882L89.0895 106.442L87.1736 102.816L88.3445 102.176L91.3248 107.935Z" fill="#005D4D"/>
<path d="M93.8793 100.149L92.3892 101.109L95.263 105.269L94.0922 106.122L91.2183 101.962L89.7282 103.029L88.8767 101.856L93.0278 98.9761L93.8793 100.149Z" fill="#005D4D"/>
<path d="M96.8596 97.2696L97.8175 98.3362L99.8399 96.4164L100.691 97.3763L98.6691 99.2961L100.372 101.003L99.3077 102.069L94.8372 97.3763L98.0304 94.3899L98.8819 95.3498L96.8596 97.2696Z" fill="#005D4D"/>
<path d="M105.8 93.6433C105.907 94.07 106.013 94.4966 105.907 94.9232C105.8 95.3498 105.588 95.7764 105.268 96.0964C104.736 96.7363 104.204 97.0563 103.565 97.163C102.927 97.2696 102.288 97.0563 101.649 96.523L98.4562 93.9633L99.4141 92.7901L102.394 95.2432C103.033 95.7764 103.672 95.7764 104.097 95.2432C104.523 94.7099 104.417 94.07 103.778 93.5367L100.798 91.0836L101.756 89.9104L104.949 92.4701C105.375 92.7901 105.694 93.2167 105.8 93.6433Z" fill="#005D4D"/>
<path d="M110.59 88.2039L109.632 89.5905L104.949 89.1638L108.568 91.4036L107.823 92.5768L102.288 89.1638L103.246 87.6707L107.823 88.0973L104.417 85.8575L105.055 84.6843L110.59 88.2039Z" fill="#005D4D"/>
<path d="M111.122 83.9377C111.335 83.4044 111.335 82.9778 111.229 82.6578C111.122 82.3379 110.697 81.9113 110.058 81.6979C109.419 81.378 108.887 81.378 108.568 81.4846C108.249 81.5913 107.929 81.9113 107.716 82.4445L107.397 83.1911L110.91 84.791L111.122 83.9377ZM108.142 79.9915C108.887 79.7782 109.632 79.8848 110.697 80.3114C111.655 80.7381 112.293 81.378 112.613 82.0179C112.932 82.6578 112.825 83.4044 112.506 84.2577L111.442 86.6041L105.588 83.9377L106.652 81.5913C106.971 80.7381 107.503 80.2048 108.142 79.9915Z" fill="#005D4D"/>
<path d="M64.3957 5.86604C33.209 5.86604 7.98294 31.1433 7.98294 62.3933C7.98294 93.6433 33.209 118.921 64.3957 118.921C95.5823 118.921 120.808 93.6433 120.808 62.3933C120.808 31.1433 95.4759 5.86604 64.3957 5.86604ZM125.385 62.3933C125.385 96.2031 98.0304 123.507 64.3957 123.507C30.7609 123.507 3.29962 96.2031 3.29962 62.3933C3.29962 28.5836 30.6545 1.27986 64.3957 1.27986C98.1369 1.27986 125.385 28.5836 125.385 62.3933Z" fill="#005D4D"/>
<path d="M64.3957 103.136C41.937 103.136 23.7359 84.8976 23.7359 62.3933C23.7359 39.8891 41.937 21.651 64.3957 21.651C86.8543 21.651 105.055 39.8891 105.055 62.3933C105.055 84.8976 86.8543 103.136 64.3957 103.136ZM64.3957 19.7312C40.8726 19.7312 21.82 38.8225 21.82 62.3933C21.82 85.9642 40.8726 105.055 64.3957 105.055C87.9187 105.055 106.971 85.9642 106.971 62.3933C106.971 38.8225 87.8123 19.7312 64.3957 19.7312Z" fill="#005D4D"/>
<path d="M100.479 62.82C87.2801 60.9002 75.146 65.4864 64.3957 75.192C53.5389 65.4864 41.5112 60.9002 28.2064 62.7133V62.82C42.0434 63.4599 53.6453 70.6058 62.9055 79.2449C64.715 80.9514 67.5888 83.8311 68.9725 85.5375L68.2275 86.1775C67.5888 86.7108 67.4824 87.6707 68.0146 88.2039C68.5468 88.8439 69.5047 88.9505 70.1434 88.4172L70.8884 87.7773C71.3142 88.3106 71.74 88.8439 71.9528 89.0572C71.9528 89.0572 73.443 91.2969 74.9331 93.3234C78.5521 98.4428 83.3418 96.523 83.7676 93.9633C84.1933 91.2969 81.8517 90.1237 79.8293 90.4437C79.8293 90.4437 79.4036 90.4437 78.9778 90.337C77.5941 89.6971 75.3589 87.244 73.7623 85.3242L75.146 84.151C75.7846 83.6178 75.8911 82.6579 75.3589 82.0179C74.8267 81.378 73.8687 81.2713 73.2301 81.8046L71.9528 82.8712C70.4627 81.058 68.8661 79.3515 67.2695 77.7517C75.2524 70.8191 86.6414 63.4599 100.479 62.82Z" fill="#C2964E"/>
<path d="M71.6335 36.3695L79.8293 37.116C78.9778 34.023 75.4653 32.7432 71.8464 33.1698C72.9108 32.1032 75.7846 31.25 78.3392 31.4633C75.8911 28.6903 72.8044 28.5836 69.1854 30.2901L72.485 26.9838C69.8241 25.9172 67.1631 27.4104 65.8858 29.2236C65.8858 28.3703 65.1407 24.8507 64.3957 24.2108C63.6506 24.8507 62.9055 28.3703 62.9055 29.2236C61.6282 27.4104 58.9673 25.9172 56.3063 26.9838L59.4995 30.2901C55.7741 28.5836 52.6874 28.6903 50.3457 31.4633C52.9002 31.25 55.7741 32.1032 56.8385 33.1698C53.2196 32.7432 49.6006 34.023 48.8556 37.116L57.0514 36.3695C53.9646 37.3294 51.4101 38.1826 50.5586 43.4087L58.9673 39.0358C56.4127 40.849 55.2419 46.1817 57.1578 48.3148C57.7964 46.9283 60.8832 41.4889 62.1604 40.4224C63.1184 48.2082 62.4798 60.9002 61.9476 63.4599L61.2025 64.4198C59.6059 64.4198 56.7321 64.5265 55.1355 64.8464C56.1999 65.3797 57.1578 66.0196 58.1158 66.6596C61.3089 66.2329 65.5665 66.2329 67.4824 66.9795C65.1407 66.9795 62.4798 67.4061 60.1381 68.0461C61.4154 69.006 62.5862 69.8592 63.1184 70.2858C63.4377 70.4992 63.8635 70.7125 64.2892 70.7125C64.715 70.7125 65.1407 70.6058 65.4601 70.2858C66.6309 69.3259 70.0369 66.7662 73.443 64.8464C71.8464 64.5265 68.9725 64.4198 67.376 64.4198L66.6309 63.4599C66.0987 60.9002 65.3536 48.2082 66.418 40.4224C67.6953 41.4889 70.782 46.9283 71.4206 48.3148C73.3366 46.1817 72.1657 40.7423 69.6112 39.0358L78.0199 43.4087C77.1684 38.0759 74.6138 37.2227 71.6335 36.3695Z" fill="#C2964E"/>
<path d="M59.7123 85.5375C60.4574 84.5776 61.6282 83.2978 62.9055 82.1246C62.3733 81.5913 61.9476 81.1647 61.5218 80.7381C60.9896 80.3114 60.5639 79.8848 60.0317 79.3515C58.9673 80.5247 57.9029 81.698 56.8385 82.9778L55.5612 81.9113C54.9226 81.378 53.9646 81.4846 53.4324 82.1246C52.9002 82.7645 53.0067 83.7244 53.6453 84.2577L55.029 85.4309C53.5389 87.3507 51.3037 89.9104 49.8135 90.4437C49.3877 90.5503 48.962 90.5503 48.962 90.5503C46.9396 90.2304 44.598 91.4036 45.0237 94.07C45.4495 96.6297 50.1328 98.6561 53.8582 93.43C55.3483 91.2969 56.8385 89.1638 56.8385 89.1638C57.0514 88.9505 57.4771 88.4172 57.9029 87.884L58.6479 88.5239C59.2866 89.0572 60.2445 88.9505 60.6703 88.3106C61.2025 87.6707 61.096 86.7108 60.4574 86.1775L59.7123 85.5375Z" fill="#C2964E"/>
</svg>
